<?xml version="1.0" standalone="no"?><!DOCTYPE svg PUBLIC "-//W3C//DTD SVG 1.1//EN" "http://www.w3.org/Graphics/SVG/1.1/DTD/svg11.dtd"><svg t="1537146056176" class="icon" style="" viewBox="0 0 1024 1024" version="1.1" xmlns="http://www.w3.org/2000/svg" p-id="2898" xmlns:xlink="http://www.w3.org/1999/xlink" width="200" height="200"><defs><style type="text/css"></style></defs><path d="M146.285714 0h731.428572c62.060606 0 110.822511 48.761905 110.822511 110.822511v802.354978c0 62.060606-48.761905 110.822511-110.822511 110.822511H146.285714c-62.060606 0-110.822511-48.761905-110.822511-110.822511V110.822511c0-62.060606 48.761905-110.822511 110.822511-110.822511z" fill="#FDDFDF" p-id="2899"></path><path d="M190.614719 268.190476h288.138528c13.298701 0 22.164502 8.865801 22.164502 22.164502s-8.865801 22.164502-22.164502 22.164503H190.614719c-13.298701 0-22.164502-8.865801-22.164503-22.164503s8.865801-22.164502 22.164503-22.164502zM190.614719 489.835498h509.783549c13.298701 0 22.164502 8.865801 22.164503 22.164502s-8.865801 22.164502-22.164503 22.164502H190.614719c-13.298701 0-22.164502-8.865801-22.164503-22.164502s8.865801-22.164502 22.164503-22.164502zM190.614719 713.69697h664.935065c13.298701 0 22.164502 8.865801 22.164502 22.164502s-8.865801 22.164502-22.164502 22.164502H190.614719c-13.298701 0-22.164502-8.865801-22.164503-22.164502s8.865801-22.164502 22.164503-22.164502z" fill="#EE9B9B" p-id="2900"></path></svg>