<?xml version="1.0" standalone="no"?><!DOCTYPE svg PUBLIC "-//W3C//DTD SVG 1.1//EN" "http://www.w3.org/Graphics/SVG/1.1/DTD/svg11.dtd"><svg t="1537146638975" class="icon" style="" viewBox="0 0 1024 1024" version="1.1" xmlns="http://www.w3.org/2000/svg" p-id="1198" xmlns:xlink="http://www.w3.org/1999/xlink" width="200" height="200"><defs><style type="text/css"></style></defs><path d="M845.824 944.128H186.368c-55.296 0-102.4-47.104-102.4-102.4V325.632c0-57.344 47.104-102.4 102.4-102.4h657.408c57.344 0 102.4 47.104 102.4 102.4v518.144c2.048 55.296-45.056 100.352-100.352 100.352z" fill="#FDDFDF" p-id="1199"></path><path d="M307.2 88.064l204.8 83.968c63.488 24.576 114.688 98.304 114.688 159.744v499.712c0 63.488-49.152 94.208-114.688 67.584l-204.8-83.968C243.712 790.528 192.512 716.8 192.512 655.36V157.696c0-63.488 51.2-96.256 114.688-69.632z" fill="#FDDFDF" p-id="1200"></path><path d="M794.624 421.888H243.712c-12.288 0-22.528-8.192-22.528-22.528 0-12.288 8.192-22.528 22.528-22.528h550.912c12.288 0 22.528 12.288 22.528 22.528 0 12.288-12.288 22.528-22.528 22.528z m0 169.984H243.712c-12.288 0-22.528-8.192-22.528-22.528 0-12.288 8.192-22.528 22.528-22.528h550.912c12.288 0 22.528 12.288 22.528 22.528 0 12.288-12.288 22.528-22.528 22.528zM794.624 786.432H243.712c-12.288 0-22.528-8.192-22.528-22.528 0-12.288 8.192-22.528 22.528-22.528h550.912c12.288 0 22.528 12.288 22.528 22.528 0 12.288-12.288 22.528-22.528 22.528z" fill="#EE9B9B" p-id="1201"></path></svg>