<?xml version="1.0" standalone="no"?><!DOCTYPE svg PUBLIC "-//W3C//DTD SVG 1.1//EN" "http://www.w3.org/Graphics/SVG/1.1/DTD/svg11.dtd"><svg t="1537146033598" class="icon" style="" viewBox="0 0 1480 1024" version="1.1" xmlns="http://www.w3.org/2000/svg" p-id="2091" xmlns:xlink="http://www.w3.org/1999/xlink" width="289.0625" height="200"><defs><style type="text/css"></style></defs><path d="M178.218289 129.887906h1123.681416v761.203539H178.218289V129.887906z" fill="#FDDFDF" p-id="2092"></path><path d="M1172.011799 374.560472h-217.486725c-12.082596 0-24.165192-12.082596-24.165192-24.165192s12.082596-24.165192 24.165192-24.165192h217.486725c12.082596 0 24.165192 12.082596 24.165192 24.165192 0 15.103245-9.061947 24.165192-24.165192 24.165192zM1172.011799 688.707965h-694.749262c-12.082596 0-24.165192-12.082596-24.165192-24.165192s12.082596-24.165192 24.165192-24.165192h697.769911c12.082596 0 24.165192 12.082596 24.165192 24.165192-3.020649 12.082596-12.082596 24.165192-27.185841 24.165192z" fill="#EE9B9B" p-id="2093"></path><path d="M1301.899705 915.256637H178.218289c-12.082596 0-24.165192-12.082596-24.165192-24.165192v-293.002949c0-12.082596 12.082596-24.165192 24.165192-24.165192s24.165192 12.082596 24.165192 24.165192v268.837758h1075.351032V154.053097H202.383481v154.053098l187.280236 111.764011c12.082596 6.041298 15.103245 21.144543 9.061947 33.227139-6.041298 12.082596-21.144543 15.103245-33.227139 9.061947l-199.362832-120.825959c-6.041298-3.020649-12.082596-12.082596-12.082596-21.144542V129.887906c0-12.082596 12.082596-24.165192 24.165192-24.165192h1123.681416c12.082596 0 24.165192 12.082596 24.165192 24.165192v761.203539c0 12.082596-9.061947 24.165192-24.165192 24.165192z" fill="#EE9B9B" p-id="2094"></path></svg>